<?xml version="1.0" encoding="UTF-8" standalone="no"?>
<!-- Created with Inkscape (http://www.inkscape.org/) -->

<svg
   xmlns:dc="http://purl.org/dc/elements/1.1/"
   xmlns:cc="http://creativecommons.org/ns#"
   xmlns:rdf="http://www.w3.org/1999/02/22-rdf-syntax-ns#"
   xmlns:svg="http://www.w3.org/2000/svg"
   xmlns="http://www.w3.org/2000/svg"
   xmlns:sodipodi="http://sodipodi.sourceforge.net/DTD/sodipodi-0.dtd"
   xmlns:inkscape="http://www.inkscape.org/namespaces/inkscape"
   width="30"
   height="30"
   id="svg2"
   version="1.1"
   inkscape:version="0.48.3.1 r9886"
   sodipodi:docname="arrow_inactive.svg">
  <defs
     id="defs4" />
  <sodipodi:namedview
     id="base"
     pagecolor="#ffffff"
     bordercolor="#666666"
     borderopacity="1.0"
     inkscape:pageopacity="0.0"
     inkscape:pageshadow="2"
     inkscape:zoom="11.313708"
     inkscape:cx="-1.4493256"
     inkscape:cy="23.786969"
     inkscape:document-units="px"
     inkscape:current-layer="layer1"
     showgrid="false"
     inkscape:window-width="1280"
     inkscape:window-height="1000"
     inkscape:window-x="0"
     inkscape:window-y="24"
     inkscape:window-maximized="1" />
  <metadata
     id="metadata7">
    <rdf:RDF>
      <cc:Work
         rdf:about="">
        <dc:format>image/svg+xml</dc:format>
        <dc:type
           rdf:resource="http://purl.org/dc/dcmitype/StillImage" />
        <dc:title></dc:title>
      </cc:Work>
    </rdf:RDF>
  </metadata>
  <g
     inkscape:label="Capa 1"
     inkscape:groupmode="layer"
     id="layer1"
     transform="translate(0,-1022.3622)">
    <path
       style="fill:#ff6400;fill-opacity:1"
       d="m 14.49263,1027.3646 c -0.231521,0.014 -0.366702,0.093 -0.53988,0.2657 -0.184089,0.1828 -0.33301,0.5398 -0.33301,0.8017 0,0.2593 -0.05449,0.506 -0.121094,0.546 -0.0666,0.04 -1.138288,-0.1004 -2.381524,-0.3106 -2.8176002,-0.4763 -3.063853,-0.479 -3.3805538,-0.03 -0.3082064,0.437 -0.3120572,0.6195 -0.030274,1.0021 0.179462,0.2438 1.4411193,0.5066 6.9831128,1.4582 3.720243,0.6388 6.836368,1.1693 6.927612,1.1774 0.335227,0.03 0.88298,-0.496 0.88298,-0.8467 0,-0.7422 -0.296857,-0.8775 -2.825537,-1.3027 -1.332039,-0.224 -2.509209,-0.4372 -2.618668,-0.4761 -0.128974,-0.046 -0.168765,-0.2443 -0.105957,-0.5561 0.227103,-1.1277 -0.138353,-1.4514 -1.907238,-1.6887 -0.237677,-0.032 -0.411058,-0.049 -0.54997,-0.04 z m -6.3524136,5.5669 -0.2371433,0.3608 c -0.2055893,0.3176 -0.1946392,0.6202 0.08073,2.5254 0.1720801,1.1905 0.596274,4.1456 0.9435276,6.5688 0.5619348,3.9216 0.6697202,4.4375 0.9838925,4.69 0.3203768,0.2577 0.8061808,0.2857 5.2474258,0.2857 2.691378,0 5.008627,-0.046 5.15156,-0.1002 0.142934,-0.054 0.336071,-0.233 0.42383,-0.396 0.143714,-0.2665 0.852505,-5.4946 1.518727,-11.1937 0.232929,-1.9926 0.228572,-2.1723 -0.02018,-2.4452 -0.252601,-0.2771 -0.674856,-0.2956 -7.179892,-0.2956 l -6.9124742,0 z m 6.9326576,1.9241 c 0.0888,0 0.306772,0.1443 0.484378,0.3207 0.307983,0.3059 0.322918,0.5342 0.322918,4.9454 0,4.2771 -0.0196,4.6451 -0.292645,4.8904 -0.385918,0.3469 -0.606244,0.335 -0.999029,-0.055 -0.307806,-0.3056 -0.322919,-0.5343 -0.322919,-4.8904 0,-4.3559 0.01511,-4.5846 0.322919,-4.8904 0.177605,-0.1764 0.395575,-0.3207 0.484378,-0.3207 z m -4.248397,0.1704 c 0.211134,0.01 0.417266,0.089 0.539879,0.2354 0.157885,0.189 1.253645,8.0341 1.281583,9.1746 0.0026,0.1102 -0.140268,0.3447 -0.317873,0.5211 -0.395282,0.3925 -0.513868,0.3975 -0.953619,0.04 -0.289961,-0.2357 -0.385376,-0.6012 -0.58529,-2.2849 -0.130879,-1.1023 -0.347001,-2.9062 -0.479332,-4.0085 -0.29237,-2.4355 -0.299502,-3.2452 -0.04541,-3.4974 0.135174,-0.1342 0.348928,-0.1907 0.560062,-0.1804 z m 8.622934,0.025 c 0.311172,0 0.616729,0.1453 0.706384,0.4258 0.04997,0.1565 -0.05685,1.5038 -0.237143,2.9964 -0.180294,1.4928 -0.411944,3.4627 -0.514651,4.3744 -0.132045,1.1721 -0.277856,1.7709 -0.49447,2.0444 -0.561267,0.7086 -1.251309,0.3041 -1.251309,-0.7316 0,-0.7891 0.915211,-8.338 1.054531,-8.6985 0.10762,-0.2785 0.425486,-0.4141 0.736658,-0.4109 z"
       id="path3942"
       inkscape:connector-curvature="0" />
  </g>
</svg>
