<?xml version="1.0" encoding="UTF-8" standalone="no"?>
<!-- Created with Inkscape (http://www.inkscape.org/) -->

<svg
   xmlns:dc="http://purl.org/dc/elements/1.1/"
   xmlns:cc="http://creativecommons.org/ns#"
   xmlns:rdf="http://www.w3.org/1999/02/22-rdf-syntax-ns#"
   xmlns:svg="http://www.w3.org/2000/svg"
   xmlns="http://www.w3.org/2000/svg"
   xmlns:sodipodi="http://sodipodi.sourceforge.net/DTD/sodipodi-0.dtd"
   xmlns:inkscape="http://www.inkscape.org/namespaces/inkscape"
   width="30"
   height="30"
   id="svg2"
   version="1.1"
   inkscape:version="0.48.3.1 r9886"
   sodipodi:docname="rotate_clockwise.svg">
  <defs
     id="defs4" />
  <sodipodi:namedview
     id="base"
     pagecolor="#ffffff"
     bordercolor="#666666"
     borderopacity="1.0"
     inkscape:pageopacity="0.0"
     inkscape:pageshadow="2"
     inkscape:zoom="16"
     inkscape:cx="10.719641"
     inkscape:cy="5.6485517"
     inkscape:document-units="px"
     inkscape:current-layer="layer1"
     showgrid="false"
     inkscape:window-width="1280"
     inkscape:window-height="1000"
     inkscape:window-x="0"
     inkscape:window-y="24"
     inkscape:window-maximized="1" />
  <metadata
     id="metadata7">
    <rdf:RDF>
      <cc:Work
         rdf:about="">
        <dc:format>image/svg+xml</dc:format>
        <dc:type
           rdf:resource="http://purl.org/dc/dcmitype/StillImage" />
        <dc:title></dc:title>
      </cc:Work>
    </rdf:RDF>
  </metadata>
  <g
     inkscape:label="Capa 1"
     inkscape:groupmode="layer"
     id="layer1"
     transform="translate(0,-1022.3622)">
    <path
       sodipodi:type="arc"
       style="fill:#ff6400;fill-opacity:1;stroke:#ff6400;stroke-width:1;stroke-miterlimit:4;stroke-opacity:1;stroke-dasharray:none"
       id="path2985"
       sodipodi:cx="13.17296"
       sodipodi:cy="13.264312"
       sodipodi:rx="3.9646773"
       sodipodi:ry="2.996346"
       d="m 17.137638,13.264312 a 3.9646773,2.996346 0 1 1 -7.9293551,0 3.9646773,2.996346 0 1 1 7.9293551,0 z"
       transform="matrix(0.4405458,0,0,0.58291731,9.1967077,1029.6302)" />
    <path
       style="fill:#ff6400;fill-opacity:1;stroke:#ff6400;stroke-width:1.0747751;stroke-miterlimit:4;stroke-opacity:1;stroke-dasharray:none"
       d="M 14.96875 5.5 C 9.862739 5.5 5.7631767 9.4605 5.5 14.5 L 8.1875 14.5 C 8.4485399 10.9573 11.358625 8.1875 14.96875 8.1875 C 18.750926 8.1875 21.8125 11.2179 21.8125 15 C 21.8125 18.6101 19.042719 21.5515 15.5 21.8125 L 15.5 24.5 C 20.539447 24.2367 24.5 20.106 24.5 15 C 24.5 9.7236 20.245133 5.5 14.96875 5.5 z M 3 15.46875 L 6.75 21.5 L 10.5 15.46875 L 3 15.46875 z "
       transform="translate(0,1022.3622)"
       id="rect2999" />
  </g>
</svg>
