<?xml version="1.0" encoding="UTF-8" standalone="no"?>
<!-- Created with Inkscape (http://www.inkscape.org/) -->

<svg
   xmlns:dc="http://purl.org/dc/elements/1.1/"
   xmlns:cc="http://creativecommons.org/ns#"
   xmlns:rdf="http://www.w3.org/1999/02/22-rdf-syntax-ns#"
   xmlns:svg="http://www.w3.org/2000/svg"
   xmlns="http://www.w3.org/2000/svg"
   xmlns:sodipodi="http://sodipodi.sourceforge.net/DTD/sodipodi-0.dtd"
   xmlns:inkscape="http://www.inkscape.org/namespaces/inkscape"
   width="30"
   height="30"
   id="svg2"
   version="1.1"
   inkscape:version="0.48.3.1 r9886"
   sodipodi:docname="zoom_fit_inactive.svg">
  <defs
     id="defs4" />
  <sodipodi:namedview
     id="base"
     pagecolor="#ffffff"
     bordercolor="#666666"
     borderopacity="1.0"
     inkscape:pageopacity="0.0"
     inkscape:pageshadow="2"
     inkscape:zoom="25.866667"
     inkscape:cx="15"
     inkscape:cy="11.907216"
     inkscape:document-units="px"
     inkscape:current-layer="layer1"
     showgrid="false"
     inkscape:window-width="1280"
     inkscape:window-height="1000"
     inkscape:window-x="0"
     inkscape:window-y="24"
     inkscape:window-maximized="1" />
  <metadata
     id="metadata7">
    <rdf:RDF>
      <cc:Work
         rdf:about="">
        <dc:format>image/svg+xml</dc:format>
        <dc:type
           rdf:resource="http://purl.org/dc/dcmitype/StillImage" />
        <dc:title></dc:title>
      </cc:Work>
    </rdf:RDF>
  </metadata>
  <g
     inkscape:label="Capa 1"
     inkscape:groupmode="layer"
     id="layer1"
     transform="translate(0,-1022.3622)">
    <path
       style="fill:#ff6400;fill-opacity:1;stroke:none"
       d="M 5.09375 5 C 5.041575 5 5 5.04075 5 5.09375 L 5 12 L 7.96875 12 L 7.96875 8.15625 C 7.96875 8.09425 8.0320034 8.0625 8.09375 8.0625 L 12 8.0625 L 12 5 L 5.09375 5 z M 18 5 L 18 8.0625 L 21.78125 8.0625 C 21.84299 8.0625 21.90625 8.09485 21.90625 8.15625 L 21.90625 12 L 25 12 L 25 5.09375 C 25 5.04075 24.95843 5 24.90625 5 L 18 5 z M 5 18 L 5 24.90625 C 5 24.95925 5.041575 25 5.09375 25 L 12 25 L 12 21.96875 L 8.09375 21.96875 C 8.032004 21.96875 7.96875 21.90515 7.96875 21.84375 L 7.96875 18 L 5 18 z M 21.90625 18 L 21.90625 21.84375 C 21.90625 21.90575 21.842994 21.96875 21.78125 21.96875 L 18 21.96875 L 18 25 L 24.90625 25 C 24.95842 25 25 24.95925 25 24.90625 L 25 18 L 21.90625 18 z "
       transform="translate(0,1022.3622)"
       id="rect8298" />
  </g>
</svg>
